Coordinates
version=1
nRows=11
nColumns=36
inDegrees=yes

Units are S.I. units (second, meters, Newtons, ...)
If the header above contains a line with 'inDegrees', this indicates whether rotational values are in degrees (yes) or radians (no).

endheader
time	pelvis_tilt	pelvis_list	pelvis_rotation	pelvis_tx	pelvis_ty	pelvis_tz	hip_flexion_r	hip_adduction_r	hip_rotation_r	knee_angle_r	knee_angle_r_beta	ankle_angle_r	subtalar_angle_r	mtp_angle_r	hip_flexion_l	hip_adduction_l	hip_rotation_l	knee_angle_l	knee_angle_l_beta	ankle_angle_l	subtalar_angle_l	mtp_angle_l	lumbar_extension	lumbar_bending	lumbar_rotation	arm_flex_r	arm_add_r	arm_rot_r	elbow_flex_r	pro_sup_r	arm_flex_l	arm_add_l	arm_rot_l	elbow_flex_l	pro_sup_l
      2.65833333	    -82.57097299	      1.80069316	   -183.03536660	      0.93492489	      0.39280928	     -0.61370930	     14.94730868	     -2.34804948	    -12.42127398	      9.71177422	      0.16950244	     34.24651130	      4.11073097	     -7.49999987	     14.22188400	     -8.29699011	    -14.33048359	     14.14915833	      0.24694940	     35.14205335	      0.05627365	     -7.49999987	    -14.77856183	      3.60968093	     -2.73291428	    -23.98926555	    -14.91648702	    -20.27208155	     15.98903175	     98.52484098	    -29.87635665	    -13.21045079	    -25.49882445	     26.19787940	    108.42456489
      2.66666667	    -82.71362278	      1.67071448	   -183.17649813	      0.93490285	      0.39323471	     -0.61356754	     15.00858524	     -2.52339212	    -12.49939910	     10.16760970	      0.17745827	     34.44479616	      4.20636417	     -7.49999987	     14.07823745	     -8.15684772	    -14.40843729	     14.27865956	      0.24920962	     35.07747580	     -0.09924124	     -7.49999987	    -14.70405911	      3.43547778	     -2.76383781	    -23.55468600	    -15.11816592	    -18.09893090	     15.13594528	     99.96509612	    -29.72241356	    -12.98537027	    -25.80922867	     26.30324453	    110.41228104
      2.67500000	    -82.91115687	      1.70921741	   -183.19191644	      0.93501560	      0.39394270	     -0.61323378	     14.76570647	     -2.48462916	    -12.53016626	     10.14281439	      0.17702551	     34.54143011	      4.11165012	     -7.49999987	     13.86862417	     -8.14516410	    -14.16784270	     14.37776076	      0.25093926	     35.05193361	     -0.27224259	     -7.49999987	    -14.68924920	      3.51915621	     -2.78582314	    -23.40209102	    -15.00562630	    -18.35946818	     15.22908810	    100.04408773	    -29.25300987	    -13.02041699	    -25.22417984	     26.16207779	    110.93191976
      2.68333333	    -83.10388337	      1.65997209	   -183.17042599	      0.93496644	      0.39480306	     -0.61286654	     14.38212769	     -2.54150991	    -12.35473552	      9.68367349	      0.16901199	     34.70594770	      4.41213282	     -7.49999987	     13.68132882	     -8.05279364	    -14.07966857	     14.48071254	      0.25273611	     35.21296764	     -0.14133490	     -7.49999987	    -14.63598827	      3.50900222	     -2.84742717	    -23.22533606	    -14.82426354	    -18.74716057	     15.22210771	    100.19832794	    -28.89462688	    -13.01394835	    -24.60374120	     25.96926235	    110.99350695
      2.69166667	    -83.34440179	      1.75137128	   -183.17277687	      0.93526317	      0.39564559	     -0.61258551	     14.12230835	     -2.48993888	    -12.28692923	      9.93662945	      0.17342690	     34.76149525	      4.26064344	     -7.49999987	     13.42184205	     -8.13201025	    -13.98752784	     14.56989892	      0.25429271	     35.35658295	     -0.15297487	     -7.49999987	    -14.64696872	      3.64554579	     -2.78493766	    -23.01816046	    -14.67102396	    -18.95020306	     15.08776126	    100.29121315	    -28.44232395	    -12.98913033	    -23.74729436	     25.72116072	    110.66586486
      2.70000000	    -83.53096100	      1.74743974	   -183.14437109	      0.93535995	      0.39642261	     -0.61217686	     14.01096015	     -2.58790469	    -12.50848291	     10.23316163	      0.17860236	     34.96569237	      4.41095637	     -7.49999987	     13.25842981	     -8.10896541	    -13.96521805	     14.75643567	      0.25754839	     35.49699950	     -0.19738386	     -7.49999987	    -14.59410834	      3.70005697	     -2.76967141	    -22.76225738	    -14.59193674	    -17.99864826	     14.82749836	     98.76228638	    -27.95788252	    -13.11818706	    -22.00361411	     25.28948421	    109.75608792
      2.70833333	    -83.74672995	      1.74355394	   -183.07775527	      0.93534585	      0.39723070	     -0.61174297	     13.63048160	     -2.60219892	    -12.31528216	      9.87236724	      0.17230531	     34.94249473	      4.43274428	     -7.49999987	     13.09433767	     -8.08766189	    -13.93825210	     15.01740695	      0.26210320	     35.61228628	     -0.20676101	     -7.49999987	    -14.58404368	      3.72735624	     -2.86868570	    -22.42136147	    -14.50708383	    -17.52029558	     14.56330675	     99.34457106	    -27.62547132	    -12.90380933	    -22.28516616	     25.31580592	    110.52071395
      2.71666667	    -84.01140650	      1.85350671	   -183.07370326	      0.93548827	      0.39808808	     -0.61123189	     13.37902559	     -2.57685626	    -12.40337994	     10.20175339	      0.17805419	     35.00822057	      4.40826508	     -7.49999987	     12.81899619	     -8.19856412	    -14.12722263	     15.19222941	      0.26515442	     35.69936842	      0.04001112	     -7.49999987	    -14.63284402	      3.89439628	     -2.77723192	    -22.06175824	    -14.50456738	    -16.08082032	     14.15201960	     97.85969979	    -27.02401598	    -13.01727681	    -20.49896638	     24.92324794	    109.38959344
      2.72500000	    -84.22413711	      1.97588668	   -183.14491479	      0.93546052	      0.39867866	     -0.61096914	     13.10981940	     -2.43751763	    -12.29611392	     10.06689985	      0.17570055	     35.00583351	      4.48572920	     -7.49999987	     12.57352941	     -8.34037642	    -14.29558465	     15.29022794	      0.26686482	     35.82723912	      0.19882930	     -7.49999987	    -14.66403163	      4.05720669	     -2.73494063	    -21.53575964	    -14.54545246	    -14.67981411	     13.65900824	     97.50580608	    -26.54151163	    -12.73994745	    -20.64959660	     24.88586351	    109.40858578
      2.73333333	    -84.46225713	      2.03788877	   -183.14372787	      0.93569760	      0.39902433	     -0.61048435	     12.98381939	     -2.46803754	    -12.09437180	     10.60729742	      0.18513226	     34.91174717	      3.80144644	     -7.49999987	     12.30282264	     -8.35000429	    -14.17849065	     15.31256233	      0.26725463	     35.75171759	      0.18659677	     -7.49999987	    -14.74313741	      4.17779829	     -2.74390267	    -20.91928782	    -14.53611459	    -13.24941947	     13.20192930	     96.48001171	    -26.01192221	    -12.52446552	    -19.69905747	     24.61670733	    108.85510736
      2.74166667	    -84.68711678	      2.12415384	   -182.94565135	      0.93566028	      0.39945814	     -0.60980772	     12.79920918	     -2.49949452	    -12.29069600	     10.87528229	      0.18980948	     35.12549422	      3.62073431	     -7.49999987	     12.22524784	     -8.40713144	    -13.97361821	     15.60749378	      0.27240215	     35.74311669	      0.29128663	     -7.49999987	    -14.78973302	      4.34743746	     -2.93737735	    -20.42790996	    -14.45893656	    -12.42209125	     13.03348811	     96.14740908	    -25.54846903	    -12.00097267	    -21.11993749	     24.83124958	    109.60133879
